<svg width="198" height="198" viewBox="0 0 198 198" fill="none" xmlns="http://www.w3.org/2000/svg">
<path d="M173.546 34.5014C173.538 34.5014 173.538 34.5016 173.53 34.4933C159.497 27.8356 143.93 25.5007 127.257 27.5384C115.261 29.0152 105.113 35.8705 99 45.4735C92.8785 35.8788 82.739 29.0152 70.7353 27.5384C54.0455 25.5007 38.5033 27.8356 24.47 34.4933C24.47 34.4933 24.4702 34.4933 24.462 34.4933C20.8815 36.1928 18.5625 39.8799 18.5625 43.8894V151.181C18.5625 154.431 20.0466 157.41 22.6371 159.365C25.2194 161.32 28.6366 161.955 31.7633 161.056C55.7626 154.242 76.0238 157.13 95.5598 170.14C95.6423 170.198 95.7412 170.213 95.8237 170.263C95.9144 170.312 95.9805 170.396 96.0795 170.445C96.1702 170.495 96.2767 170.469 96.3675 170.519C97.2007 170.915 98.0844 171.179 98.9919 171.179C99.8994 171.179 100.781 170.915 101.614 170.519C101.705 170.477 101.814 170.495 101.904 170.445C101.995 170.396 102.07 170.321 102.152 170.263C102.235 170.213 102.334 170.198 102.416 170.14C121.927 157.13 142.197 154.242 166.213 161.056C169.331 161.939 172.754 161.32 175.337 159.365C177.927 157.41 179.413 154.423 179.413 151.181V43.8894C179.438 39.8964 177.127 36.2091 173.546 34.5014ZM55.5546 145.15C47.6263 145.15 39.435 146.256 30.9375 148.467V45.1351C42.6443 39.8386 55.1769 38.0903 69.2267 39.8228C82.6742 41.4728 92.8125 52.9397 92.8125 66.4862V154.192C80.9738 148.153 68.6226 145.15 55.5546 145.15ZM167.062 148.467C144.573 142.617 124.22 144.482 105.188 154.192V66.4862C105.188 52.9315 115.326 41.4728 128.765 39.8228C132.247 39.3938 135.639 39.1793 138.947 39.1793C148.971 39.1793 158.252 41.1504 167.054 45.1351V148.467H167.062Z" fill="#CFCFD3"/>
</svg>
