<svg width="21" height="20" viewBox="0 0 21 20" fill="none" xmlns="http://www.w3.org/2000/svg">
<path d="M17.5357 17.0414H14.5722V12.4004C14.5722 11.2938 14.5524 9.86914 13.0309 9.86914C11.4874 9.86914 11.2513 11.0749 11.2513 12.3199V17.0411H8.28777V7.49742H11.1327V8.80166H11.1725C11.4573 8.31487 11.8687 7.91439 12.363 7.64292C12.8573 7.37144 13.416 7.23912 13.9795 7.26004C16.9831 7.26004 17.537 9.23569 17.537 11.8059L17.5357 17.0414ZM4.94399 6.19287C4.60386 6.19294 4.27133 6.09214 3.98849 5.90321C3.70564 5.7143 3.48518 5.44576 3.35496 5.13153C3.22475 4.81731 3.19062 4.47153 3.25692 4.13793C3.32321 3.80432 3.48695 3.49786 3.72743 3.25731C3.96789 3.01675 4.27429 2.85291 4.60788 2.78649C4.94147 2.72007 5.28724 2.75407 5.60151 2.88417C5.91577 3.01428 6.1844 3.23465 6.37341 3.51744C6.56244 3.80021 6.66337 4.13269 6.66342 4.47282C6.66346 4.69867 6.61902 4.9223 6.53262 5.13096C6.44623 5.33963 6.31961 5.52923 6.15995 5.68895C6.00029 5.84868 5.81071 5.97539 5.60207 6.06185C5.39344 6.14831 5.16983 6.19283 4.94399 6.19287ZM6.42572 17.0414H3.45916V7.49742H6.42572V17.0414ZM19.0131 0.00136264H1.97001C1.58319 -0.00300274 1.21043 0.146386 0.93369 0.416703C0.656949 0.687019 0.498862 1.05615 0.494141 1.44297V18.5568C0.4987 18.9438 0.656694 19.3131 0.933425 19.5838C1.21016 19.8544 1.583 20.0041 1.97001 19.9999H19.0131C19.4009 20.0048 19.7748 19.8555 20.0527 19.5849C20.3304 19.3144 20.4895 18.9445 20.4949 18.5568V1.44174C20.4893 1.05414 20.3301 0.684597 20.0524 0.414287C19.7745 0.143978 19.4008 -0.00498454 19.0131 0.000127352" fill="#8D8C97"/>
</svg>
