<svg width="16" height="16" viewBox="0 0 16 16" fill="none" xmlns="http://www.w3.org/2000/svg">
<path d="M1.5 4C1.5 3.724 1.724 3.5 2 3.5H14C14.276 3.5 14.5 3.724 14.5 4C14.5 4.276 14.276 4.5 14 4.5H2C1.724 4.5 1.5 4.276 1.5 4ZM14 7.5H2C1.724 7.5 1.5 7.724 1.5 8C1.5 8.276 1.724 8.5 2 8.5H14C14.276 8.5 14.5 8.276 14.5 8C14.5 7.724 14.276 7.5 14 7.5ZM14 11.5H2C1.724 11.5 1.5 11.724 1.5 12C1.5 12.276 1.724 12.5 2 12.5H14C14.276 12.5 14.5 12.276 14.5 12C14.5 11.724 14.276 11.5 14 11.5Z" fill="#44444B"/>
</svg>
