<svg width="19" height="20" viewBox="0 0 19 20" fill="none" xmlns="http://www.w3.org/2000/svg">
<path d="M18.0218 8.20169C16.3016 8.2058 14.6237 7.66934 13.2249 6.6681V13.6511C13.2244 14.9444 12.8291 16.2068 12.0918 17.2694C11.3545 18.332 10.3104 19.1442 9.09909 19.5974C7.88775 20.0505 6.56693 20.1231 5.31324 19.8053C4.05955 19.4876 2.93275 18.7946 2.08351 17.8192C1.23427 16.8437 0.703071 15.6323 0.560936 14.3468C0.418802 13.0613 0.67251 11.763 1.28814 10.6256C1.90376 9.48819 2.85196 8.56583 4.00595 7.98185C5.15993 7.39788 6.4647 7.18013 7.74578 7.35772V10.8699C7.15956 10.6855 6.53006 10.6911 5.94718 10.8858C5.3643 11.0805 4.85785 11.4544 4.50015 11.9541C4.14245 12.4539 3.9518 13.0538 3.95542 13.6684C3.95904 14.2829 4.15674 14.8806 4.5203 15.376C4.88386 15.8715 5.39468 16.2394 5.97982 16.4272C6.56495 16.6151 7.19447 16.6132 7.77848 16.4219C8.36249 16.2306 8.87113 15.8597 9.23175 15.3621C9.59238 14.8645 9.78655 14.2657 9.78653 13.6511V0H13.2249C13.2225 0.290363 13.2468 0.580329 13.2976 0.866235C13.4171 1.50447 13.6655 2.11163 14.0277 2.65057C14.3898 3.1895 14.8582 3.64889 15.404 4.00062C16.1805 4.51407 17.0909 4.78774 18.0218 4.78754V8.20169Z" fill="#8D8C97"/>
</svg>
