<svg width="30" height="20" viewBox="0 0 30 20" fill="none" xmlns="http://www.w3.org/2000/svg">
<path d="M15.5921 19.9738L9.66026 19.8653C7.73969 19.8275 5.81433 19.9029 3.93141 19.5114C1.06705 18.9261 0.864131 16.0571 0.651795 13.6504C0.359219 10.2669 0.472484 6.82204 1.02461 3.46682C1.33631 1.58419 2.56296 0.460813 4.45992 0.338567C10.8636 -0.105078 17.3098 -0.0525011 23.6993 0.154475C24.3741 0.173449 25.0536 0.277154 25.719 0.395199C29.0035 0.970938 29.0836 4.22231 29.2965 6.95935C29.5089 9.72463 29.4191 12.5041 29.0133 15.2506C28.6878 17.5246 28.0648 19.4315 25.4358 19.6156C22.1418 19.8564 18.9235 20.0501 15.6203 19.9885C15.6204 19.9738 15.6015 19.9738 15.5921 19.9738ZM12.1047 14.2167C14.5871 12.7915 17.0219 11.39 19.49 9.97433C17.003 8.54911 14.5728 7.14764 12.1047 5.73197V14.2167Z" fill="#8D8C97"/>
</svg>
