<svg width="36" height="36" viewBox="0 0 36 36" fill="none" xmlns="http://www.w3.org/2000/svg">
<g clip-path="url(#clip0_3_23547)">
<rect width="36" height="36" rx="12" fill="url(#paint0_linear_3_23547)"/>
<g filter="url(#filter0_dd_3_23547)">
<path fill-rule="evenodd" clip-rule="evenodd" d="M20.8317 7.26748C20.9746 7.26748 21.0904 7.15164 21.0904 7.00874C21.0904 6.86584 20.9746 6.75 20.8317 6.75C20.6888 6.75 20.5729 6.86584 20.5729 7.00874C20.5729 7.15164 20.6888 7.26748 20.8317 7.26748ZM23.1196 7.45205C23.1196 7.73785 22.8879 7.96954 22.6021 7.96954C22.3163 7.96954 22.0847 7.73785 22.0847 7.45205C22.0847 7.16626 22.3163 6.93457 22.6021 6.93457C22.8879 6.93457 23.1196 7.16626 23.1196 7.45205ZM16.0763 10.0889C16.9337 10.0889 17.6288 9.39388 17.6288 8.53649C17.6288 7.67909 16.9337 6.98404 16.0763 6.98404C15.2189 6.98404 14.5239 7.67909 14.5239 8.53649C14.5239 9.39388 15.2189 10.0889 16.0763 10.0889ZM20.0726 10.6492C20.7871 10.6492 21.3663 10.07 21.3663 9.35553C21.3663 8.64104 20.7871 8.06182 20.0726 8.06182C19.3581 8.06182 18.7789 8.64104 18.7789 9.35553C18.7789 10.07 19.3581 10.6492 20.0726 10.6492ZM13.6089 9.35553C13.6089 10.07 13.0297 10.6492 12.3152 10.6492C11.6007 10.6492 11.0215 10.07 11.0215 9.35553C11.0215 8.64104 11.6007 8.06182 12.3152 8.06182C13.0297 8.06182 13.6089 8.64104 13.6089 9.35553ZM16.7261 27.489C17.4406 27.489 18.0199 26.9098 18.0199 26.1953C18.0199 25.4808 17.4406 24.9016 16.7261 24.9016C16.0116 24.9016 15.4324 25.4808 15.4324 26.1953C15.4324 26.9098 16.0116 27.489 16.7261 27.489ZM11.148 23.7344C11.148 24.4489 10.5688 25.0281 9.85426 25.0281C9.13976 25.0281 8.56055 24.4489 8.56055 23.7344C8.56055 23.0199 9.13976 22.4407 9.85426 22.4407C10.5688 22.4407 11.148 23.0199 11.148 23.7344ZM9.28136 12.4312C9.85296 12.4312 10.3163 11.9678 10.3163 11.3962C10.3163 10.8246 9.85296 10.3612 9.28136 10.3612C8.70976 10.3612 8.24639 10.8246 8.24639 11.3962C8.24639 11.9678 8.70976 12.4312 9.28136 12.4312ZM14.9811 24.2281C14.9811 24.7997 14.5177 25.2631 13.9461 25.2631C13.3745 25.2631 12.9111 24.7997 12.9111 24.2281C12.9111 23.6565 13.3745 23.1932 13.9461 23.1932C14.5177 23.1932 14.9811 23.6565 14.9811 24.2281ZM11.8741 27.6329C12.4457 27.6329 12.9091 27.1695 12.9091 26.5979C12.9091 26.0263 12.4457 25.563 11.8741 25.563C11.3025 25.563 10.8392 26.0263 10.8392 26.5979C10.8392 27.1695 11.3025 27.6329 11.8741 27.6329ZM25.8575 26.236C25.8575 26.9505 25.2783 27.5297 24.5638 27.5297C23.8493 27.5297 23.2701 26.9505 23.2701 26.236C23.2701 25.5215 23.8493 24.9423 24.5638 24.9423C25.2783 24.9423 25.8575 25.5215 25.8575 26.236ZM20.8126 28.6679C21.67 28.6679 22.365 27.9728 22.365 27.1154C22.365 26.258 21.67 25.563 20.8126 25.563C19.9552 25.563 19.2601 26.258 19.2601 27.1154C19.2601 27.9728 19.9552 28.6679 20.8126 28.6679ZM10.5383 19.9117C10.5383 20.7691 9.84322 21.4642 8.98582 21.4642C8.12842 21.4642 7.43337 20.7691 7.43337 19.9117C7.43337 19.0543 8.12842 18.3593 8.98582 18.3593C9.84322 18.3593 10.5383 19.0543 10.5383 19.9117ZM24.9324 23.313C25.504 23.313 25.9674 22.8497 25.9674 22.2781C25.9674 21.7065 25.504 21.2431 24.9324 21.2431C24.3608 21.2431 23.8975 21.7065 23.8975 22.2781C23.8975 22.8497 24.3608 23.313 24.9324 23.313ZM8.56278 13.7796C8.56278 14.2083 8.21525 14.5558 7.78656 14.5558C7.35786 14.5558 7.01033 14.2083 7.01033 13.7796C7.01033 13.3509 7.35786 13.0034 7.78656 13.0034C8.21525 13.0034 8.56278 13.3509 8.56278 13.7796ZM7.26748 16.0017C7.55328 16.0017 7.78497 15.77 7.78497 15.4842C7.78497 15.1984 7.55328 14.9667 7.26748 14.9667C6.98169 14.9667 6.75 15.1984 6.75 15.4842C6.75 15.77 6.98169 16.0017 7.26748 16.0017ZM12.408 20.1456C12.408 20.4314 12.1763 20.6631 11.8905 20.6631C11.6047 20.6631 11.373 20.4314 11.373 20.1456C11.373 19.8598 11.6047 19.6282 11.8905 19.6282C12.1763 19.6282 12.408 19.8598 12.408 20.1456ZM15.9499 29.25C16.2357 29.25 16.4674 29.0184 16.4674 28.7326C16.4674 28.4468 16.2357 28.2151 15.9499 28.2151C15.6641 28.2151 15.4324 28.4468 15.4324 28.7326C15.4324 29.0184 15.6641 29.25 15.9499 29.25ZM30.1069 20.1819C30.1069 20.4677 29.8752 20.6994 29.5895 20.6994C29.3037 20.6994 29.072 20.4677 29.072 20.1819C29.072 19.8961 29.3037 19.6644 29.5895 19.6644C29.8752 19.6644 30.1069 19.8961 30.1069 20.1819ZM20.8114 24.7687C21.0972 24.7687 21.3289 24.537 21.3289 24.2512C21.3289 23.9654 21.0972 23.7337 20.8114 23.7337C20.5256 23.7337 20.2939 23.9654 20.2939 24.2512C20.2939 24.537 20.5256 24.7687 20.8114 24.7687ZM13.1826 21.8864C13.1826 22.3151 12.835 22.6626 12.4063 22.6626C11.9776 22.6626 11.6301 22.3151 11.6301 21.8864C11.6301 21.4577 11.9776 21.1102 12.4063 21.1102C12.835 21.1102 13.1826 21.4577 13.1826 21.8864ZM14.2037 28.9127C14.6324 28.9127 14.9799 28.5652 14.9799 28.1365C14.9799 27.7078 14.6324 27.3603 14.2037 27.3603C13.775 27.3603 13.4274 27.7078 13.4274 28.1365C13.4274 28.5652 13.775 28.9127 14.2037 28.9127ZM29.8488 21.9314C29.8488 22.3601 29.5013 22.7077 29.0726 22.7077C28.6439 22.7077 28.2964 22.3601 28.2964 21.9314C28.2964 21.5027 28.6439 21.1552 29.0726 21.1552C29.5013 21.1552 29.8488 21.5027 29.8488 21.9314ZM27.357 25.128C27.9286 25.128 28.392 24.6646 28.392 24.093C28.392 23.5214 27.9286 23.0581 27.357 23.0581C26.7855 23.0581 26.3221 23.5214 26.3221 24.093C26.3221 24.6646 26.7855 25.128 27.357 25.128ZM23.3779 23.7332C23.3779 24.1619 23.0303 24.5094 22.6016 24.5094C22.1729 24.5094 21.8254 24.1619 21.8254 23.7332C21.8254 23.3045 22.1729 22.957 22.6016 22.957C23.0303 22.957 23.3779 23.3045 23.3779 23.7332ZM15.9499 11.7971C16.2357 11.7971 16.4674 11.5655 16.4674 11.2797C16.4674 10.9939 16.2357 10.7622 15.9499 10.7622C15.6641 10.7622 15.4324 10.9939 15.4324 11.2797C15.4324 11.5655 15.6641 11.7971 15.9499 11.7971ZM15.0129 11.7977C15.0129 12.2264 14.6653 12.5739 14.2366 12.5739C13.8079 12.5739 13.4604 12.2264 13.4604 11.7977C13.4604 11.369 13.8079 11.0215 14.2366 11.0215C14.6653 11.0215 15.0129 11.369 15.0129 11.7977ZM11.8916 14.39C12.4632 14.39 12.9266 13.9267 12.9266 13.3551C12.9266 12.7835 12.4632 12.3201 11.8916 12.3201C11.32 12.3201 10.8567 12.7835 10.8567 13.3551C10.8567 13.9267 11.32 14.39 11.8916 14.39ZM11.0206 16.0978C11.0206 16.8123 10.4413 17.3915 9.72685 17.3915C9.01236 17.3915 8.43314 16.8123 8.43314 16.0978C8.43314 15.3833 9.01236 14.8041 9.72685 14.8041C10.4413 14.8041 11.0206 15.3833 11.0206 16.0978ZM22.8609 12.2026C23.2896 12.2026 23.6371 11.8551 23.6371 11.4264C23.6371 10.9977 23.2896 10.6502 22.8609 10.6502C22.4322 10.6502 22.0847 10.9977 22.0847 11.4264C22.0847 11.8551 22.4322 12.2026 22.8609 12.2026ZM24.9072 13.7779C24.9072 14.0637 24.6755 14.2954 24.3897 14.2954C24.1039 14.2954 23.8722 14.0637 23.8722 13.7779C23.8722 13.4921 24.1039 13.2604 24.3897 13.2604C24.6755 13.2604 24.9072 13.4921 24.9072 13.7779ZM24.9071 16.0983C25.1929 16.0983 25.4245 15.8666 25.4245 15.5808C25.4245 15.295 25.1929 15.0634 24.9071 15.0634C24.6213 15.0634 24.3896 15.295 24.3896 15.5808C24.3896 15.8666 24.6213 16.0983 24.9071 16.0983ZM29.427 15.5798C29.427 16.4372 28.7319 17.1322 27.8745 17.1322C27.0171 17.1322 26.3221 16.4372 26.3221 15.5798C26.3221 14.7224 27.0171 14.0273 27.8745 14.0273C28.7319 14.0273 29.427 14.7224 29.427 15.5798ZM27.15 20.8049C27.8645 20.8049 28.4437 20.2257 28.4437 19.5112C28.4437 18.7967 27.8645 18.2175 27.15 18.2175C26.4355 18.2175 25.8563 18.7967 25.8563 19.5112C25.8563 20.2257 26.4355 20.8049 27.15 20.8049ZM28.3668 11.8428C28.3668 12.5573 27.7875 13.1365 27.073 13.1365C26.3586 13.1365 25.7793 12.5573 25.7793 11.8428C25.7793 11.1283 26.3586 10.5491 27.073 10.5491C27.7875 10.5491 28.3668 11.1283 28.3668 11.8428ZM24.9072 10.0899C25.4787 10.0899 25.9421 9.62655 25.9421 9.05495C25.9421 8.48335 25.4787 8.01998 24.9072 8.01998C24.3356 8.01998 23.8722 8.48335 23.8722 9.05495C23.8722 9.62655 24.3356 10.0899 24.9072 10.0899Z" fill="url(#paint1_linear_3_23547)" shape-rendering="crispEdges"/>
</g>
</g>
<defs>
<filter id="filter0_dd_3_23547" x="-11.1012" y="-11.1012" width="59.0594" height="58.2025" filterUnits="userSpaceOnUse" color-interpolation-filters="sRGB">
<feFlood flood-opacity="0" result="BackgroundImageFix"/>
<feColorMatrix in="SourceAlpha" type="matrix" values="0 0 0 0 0 0 0 0 0 0 0 0 0 0 0 0 0 0 127 0" result="hardAlpha"/>
<feOffset dy="0.743802"/>
<feGaussianBlur stdDeviation="0.818182"/>
<feComposite in2="hardAlpha" operator="out"/>
<feColorMatrix type="matrix" values="0 0 0 0 0.0610909 0 0 0 0 0.00872727 0 0 0 0 0.151273 0 0 0 0.2 0"/>
<feBlend mode="normal" in2="BackgroundImageFix" result="effect1_dropShadow_3_23547"/>
<feColorMatrix in="SourceAlpha" type="matrix" values="0 0 0 0 0 0 0 0 0 0 0 0 0 0 0 0 0 0 127 0" result="hardAlpha"/>
<feOffset/>
<feGaussianBlur stdDeviation="8.92562"/>
<feComposite in2="hardAlpha" operator="out"/>
<feColorMatrix type="matrix" values="0 0 0 0 0.199006 0 0 0 0 0.0102294 0 0 0 0 0.523071 0 0 0 1 0"/>
<feBlend mode="normal" in2="effect1_dropShadow_3_23547" result="effect2_dropShadow_3_23547"/>
<feBlend mode="normal" in="SourceGraphic" in2="effect2_dropShadow_3_23547" result="shape"/>
</filter>
<linearGradient id="paint0_linear_3_23547" x1="18" y1="0" x2="18" y2="36" gradientUnits="userSpaceOnUse">
<stop stop-color="#6F58FF"/>
<stop offset="1" stop-color="#34008E"/>
</linearGradient>
<linearGradient id="paint1_linear_3_23547" x1="6.69421" y1="6.69422" x2="30.0496" y2="29.3058" gradientUnits="userSpaceOnUse">
<stop stop-color="white"/>
<stop offset="1" stop-color="#FAFAFA" stop-opacity="0.72"/>
</linearGradient>
<clipPath id="clip0_3_23547">
<rect width="36" height="36" rx="12" fill="white"/>
</clipPath>
</defs>
</svg>
